<?xml version="1.0" standalone="no"?>
<!DOCTYPE svg PUBLIC "-//W3C//DTD SVG 20010904//EN"
 "http://www.w3.org/TR/2001/REC-SVG-20010904/DTD/svg10.dtd">
<svg version="1.0" xmlns="http://www.w3.org/2000/svg"
 width="525.000000pt" height="525.000000pt" viewBox="0 0 525.000000 525.000000"
 preserveAspectRatio="xMidYMid meet">
<metadata>
Created by potrace 1.11, written by Peter Selinger 2001-2013
</metadata>
<g transform="translate(0.000000,525.000000) scale(0.100000,-0.100000)"
fill="#000000" stroke="none">
<path d="M570 2820 l0 -1490 260 0 260 0 0 80 0 80 55 -44 c64 -53 173 -107
265 -132 93 -26 327 -26 430 0 320 80 547 325 616 667 23 115 15 360 -15 473
-64 232 -200 405 -394 499 -130 64 -204 80 -362 79 -136 0 -243 -17 -350 -54
-75 -26 -170 -73 -212 -104 -17 -13 -34 -24 -37 -24 -3 0 -6 329 -6 730 l0
730 -255 0 -255 0 0 -1490z m1084 -291 c98 -37 165 -101 214 -207 23 -48 27
-70 27 -147 0 -81 -4 -97 -33 -156 -40 -84 -99 -142 -182 -183 -59 -28 -74
-31 -160 -31 -84 0 -103 3 -157 29 -77 35 -153 113 -191 193 -23 49 -27 72
-27 148 0 80 3 97 32 157 87 185 288 268 477 197z"/>
<path d="M4573 4299 c-203 -24 -425 -110 -571 -223 -112 -85 -252 -261 -282
-351 -6 -19 -14 -35 -17 -35 -4 0 -31 19 -62 43 -130 98 -227 144 -371 173
-99 20 -273 15 -380 -11 -97 -23 -210 -65 -210 -79 0 -23 105 -161 180 -236
149 -150 312 -247 495 -296 135 -36 337 -38 492 -5 486 102 806 417 923 905
32 130 33 126 -52 125 -40 -1 -105 -5 -145 -10z"/>
<path d="M3565 3019 c-126 -18 -291 -84 -402 -160 -143 -99 -266 -273 -317
-451 -38 -133 -38 -354 0 -501 37 -143 116 -279 220 -377 76 -71 103 -90 204
-140 125 -63 247 -91 417 -97 169 -6 273 6 397 49 132 44 217 99 326 208 82
81 103 109 142 190 76 154 92 227 93 415 0 124 -4 177 -19 235 -66 263 -240
465 -492 570 -152 63 -378 86 -569 59z m225 -470 c126 -20 233 -102 289 -219
22 -48 26 -68 26 -155 0 -90 -3 -106 -28 -155 -41 -80 -69 -113 -129 -152 -80
-53 -146 -71 -237 -66 -134 9 -247 80 -308 195 -79 149 -59 313 53 433 67 72
138 110 229 123 17 2 32 5 35 5 3 1 34 -3 70 -9z"/>
</g>
</svg>
